<svg width="48" height="48" viewBox="0 0 48 48" fill="none" xmlns="http://www.w3.org/2000/svg">
<path id="Ellipse 37" d="M34.6892 42.648C35.2962 43.6994 34.9394 45.0542 33.8359 45.5602C29.076 47.7428 23.6999 48.2792 18.5679 47.0448C12.7204 45.6382 7.63614 42.0401 4.36486 36.9933C1.09359 31.9465 -0.114974 25.8362 0.988687 19.9241C2.09235 14.0119 5.42397 8.74919 10.2957 5.22246C15.1675 1.69573 21.2074 0.174245 27.1686 0.972111C33.1297 1.76998 38.5569 4.82628 42.3297 9.51004C46.1026 14.1938 47.933 20.1474 47.443 26.1417C47.013 31.4026 44.8245 36.3423 41.2646 40.1825C40.4392 41.0728 39.0408 40.9886 38.2316 40.0836V40.0836C36.4694 38.113 33.3674 40.3586 34.6892 42.648V42.648Z" fill="url(#paint0_linear_882_272)"/>
<defs>
<linearGradient id="paint0_linear_882_272" x1="53.1889" y1="27.1118" x2="-0.9392" y2="39.451" gradientUnits="userSpaceOnUse">
<stop stop-color="#BE7EFF"/>
<stop offset="0.510792" stop-color="#8308FF" stop-opacity="0.562691"/>
<stop offset="0.952797" stop-color="#BE7EFF" stop-opacity="0"/>
</linearGradient>
</defs>
</svg>
